<svg width="25" height="24" viewBox="0 0 25 24" fill="none" xmlns="http://www.w3.org/2000/svg">
<mask id="mask0_107_15" style="mask-type:alpha" maskUnits="userSpaceOnUse" x="0" y="0" width="25" height="25">
<rect x="0.0644531" y="0.00626564" width="24" height="24" fill="#D9D9D9"/>
</mask>
<g mask="url(#mask0_107_15)">
<path d="M12.0645 23.0063C10.1978 23.0063 8.48112 22.5813 6.91445 21.7313C5.34779 20.8813 4.06445 19.7479 3.06445 18.3313V21.0063H1.06445V15.0063H7.06445V17.0063H4.58945C5.38945 18.2063 6.44362 19.1729 7.75195 19.9063C9.06029 20.6396 10.4978 21.0063 12.0645 21.0063C13.3145 21.0063 14.4853 20.7688 15.577 20.2938C16.6686 19.8188 17.6186 19.1771 18.427 18.3688C19.2353 17.5604 19.877 16.6104 20.352 15.5188C20.827 14.4271 21.0645 13.2563 21.0645 12.0063H23.0645C23.0645 13.5229 22.777 14.9479 22.202 16.2813C21.627 17.6146 20.8395 18.7813 19.8395 19.7813C18.8395 20.7813 17.6728 21.5688 16.3395 22.1438C15.0061 22.7188 13.5811 23.0063 12.0645 23.0063ZM11.1645 19.0063V17.7063C10.3811 17.5229 9.74362 17.1854 9.25195 16.6938C8.76029 16.2021 8.39779 15.5563 8.16445 14.7563L9.81445 14.1063C10.0145 14.7896 10.327 15.3021 10.752 15.6438C11.177 15.9854 11.6645 16.1563 12.2145 16.1563C12.7645 16.1563 13.2353 16.0271 13.627 15.7688C14.0186 15.5104 14.2145 15.1063 14.2145 14.5563C14.2145 14.0729 14.0103 13.6813 13.602 13.3813C13.1936 13.0813 12.4645 12.7396 11.4145 12.3563C10.4311 12.0063 9.71029 11.5896 9.25195 11.1063C8.79362 10.6229 8.56445 9.9896 8.56445 9.20627C8.56445 8.52293 8.80195 7.9021 9.27695 7.34377C9.75195 6.78543 10.3978 6.42293 11.2145 6.25627V5.00627H12.9645V6.25627C13.5645 6.30627 14.1103 6.54793 14.602 6.98127C15.0936 7.4146 15.4311 7.92293 15.6145 8.50627L14.0145 9.15627C13.8811 8.77293 13.6645 8.4521 13.3645 8.19377C13.0645 7.93543 12.6478 7.80627 12.1145 7.80627C11.5311 7.80627 11.0853 7.93127 10.777 8.18127C10.4686 8.43127 10.3145 8.77293 10.3145 9.20627C10.3145 9.6396 10.5061 9.98127 10.8895 10.2313C11.2728 10.4813 11.9645 10.7729 12.9645 11.1063C14.1645 11.5396 14.9645 12.0479 15.3645 12.6313C15.7645 13.2146 15.9645 13.8563 15.9645 14.5563C15.9645 15.0396 15.8811 15.4646 15.7145 15.8313C15.5478 16.1979 15.327 16.5104 15.052 16.7688C14.777 17.0271 14.4561 17.2354 14.0895 17.3938C13.7228 17.5521 13.3311 17.6729 12.9145 17.7563V19.0063H11.1645ZM1.06445 12.0063C1.06445 10.4896 1.35195 9.0646 1.92695 7.73127C2.50195 6.39793 3.28945 5.23127 4.28945 4.23127C5.28945 3.23127 6.45612 2.44377 7.78945 1.86877C9.12279 1.29377 10.5478 1.00627 12.0645 1.00627C13.9311 1.00627 15.6478 1.43127 17.2145 2.28127C18.7811 3.13127 20.0645 4.2646 21.0645 5.68127V3.00627H23.0645V9.00627H17.0645V7.00627H19.5395C18.7395 5.80627 17.6853 4.8396 16.377 4.10627C15.0686 3.37293 13.6311 3.00627 12.0645 3.00627C10.8145 3.00627 9.64362 3.24377 8.55195 3.71877C7.46029 4.19377 6.51029 4.83543 5.70195 5.64377C4.89362 6.4521 4.25195 7.4021 3.77695 8.49377C3.30195 9.58543 3.06445 10.7563 3.06445 12.0063H1.06445Z" fill="#46434E"/>
</g>
</svg>
